<?xml version="1.0" standalone="no"?>
<!DOCTYPE svg PUBLIC "-//W3C//DTD SVG 20010904//EN"
 "http://www.w3.org/TR/2001/REC-SVG-20010904/DTD/svg10.dtd">
<svg version="1.0" xmlns="http://www.w3.org/2000/svg"
 width="317.000000pt" height="137.000000pt" viewBox="0 0 317.000000 137.000000"
 preserveAspectRatio="xMidYMid meet">
<metadata>
Created by potrace 1.16, written by Peter Selinger 2001-2019
</metadata>
<g transform="translate(0.000000,137.000000) scale(0.100000,-0.100000)"
fill="#000000" stroke="none">
<path d="M1730 965 c0 -12 15 -15 79 -15 44 0 83 -5 86 -10 3 -6 -11 -30 -32
-55 l-38 -44 -122 -1 c-103 0 -123 -3 -123 -15 0 -12 18 -15 100 -15 114 0
119 -4 65 -62 l-35 -37 -117 -3 c-82 -2 -118 -7 -121 -15 -3 -10 23 -13 110
-13 l113 0 50 -63 c150 -188 215 -253 215 -217 0 5 -28 42 -62 82 -35 40 -82
96 -105 125 l-43 51 116 138 c150 179 150 178 -13 182 -105 2 -123 0 -123 -13z"/>
<path d="M2033 809 c-83 -41 -108 -157 -50 -233 31 -39 99 -61 157 -48 28 6
36 13 38 35 3 25 2 26 -28 16 -37 -13 -77 -5 -107 23 -18 17 -23 32 -23 73 0
79 45 115 126 102 31 -5 34 -3 34 18 0 12 -7 26 -16 29 -31 12 -90 6 -131 -15z"/>
<path d="M2240 805 c0 -23 4 -25 45 -25 l45 0 0 -126 0 -125 28 3 27 3 3 123
3 122 39 0 c36 0 40 3 40 25 l0 25 -115 0 -115 0 0 -25z"/>
<path d="M324 806 c-36 -16 -73 -70 -81 -120 -8 -49 28 -119 71 -140 34 -16
110 -21 140 -10 9 3 16 16 16 28 0 19 -4 21 -59 18 -53 -3 -60 -1 -80 24 -23
29 -28 92 -10 125 15 29 66 48 112 41 36 -5 39 -3 35 19 -3 22 -8 24 -58 26
-30 2 -69 -3 -86 -11z"/>
<path d="M500 795 c0 -23 4 -25 45 -25 l45 0 0 -120 0 -120 25 0 24 0 3 118 3
117 43 3 c37 3 42 6 42 28 l0 24 -115 0 -115 0 0 -25z"/>
<path d="M780 675 l0 -145 25 0 25 0 0 110 c0 61 3 110 8 110 4 -1 23 -49 42
-108 33 -97 38 -107 60 -107 22 0 28 10 58 95 19 52 37 102 41 110 3 8 8 -34
11 -95 l5 -110 28 -3 27 -3 0 145 0 146 -44 0 c-38 0 -46 -4 -52 -22 -32 -106
-68 -188 -75 -176 -5 7 -23 55 -40 106 l-31 92 -44 0 -44 0 0 -145z"/>
<path d="M1213 808 c-12 -6 -27 -24 -34 -41 -18 -42 3 -75 69 -110 41 -22 52
-34 52 -52 0 -36 -52 -46 -112 -20 -14 6 -18 2 -18 -18 0 -29 20 -37 93 -37
40 0 53 5 78 29 49 49 32 94 -50 136 -55 27 -67 47 -44 71 13 12 27 15 61 10
41 -5 43 -4 40 17 -3 19 -9 22 -58 24 -30 1 -65 -3 -77 -9z"/>
</g>
</svg>
